<svg width="1728" height="113" viewBox="0 0 1728 113" fill="none" xmlns="http://www.w3.org/2000/svg">
<g clip-path="url(#clip0_1_2221)">
<mask id="mask0_1_2221" style="mask-type:alpha" maskUnits="userSpaceOnUse" x="-105" y="1" width="1941" height="112">
<path d="M1835.32 112.54L-105 112.54L-105 60.7997L-30.9823 1.29304L1835.32 1.2932L1835.32 112.54Z" fill="white"/>
</mask>
<g mask="url(#mask0_1_2221)">
<g opacity="0.2">
<path d="M211.955 339.272L-598.394 -273.819" stroke="white"/>
<path d="M230.763 339.272L-579.586 -273.819" stroke="white"/>
<path d="M249.584 339.272L-560.764 -273.819" stroke="white"/>
<path d="M268.393 339.272L-541.956 -273.819" stroke="white"/>
<path d="M287.215 339.272L-523.147 -273.819" stroke="white"/>
<path d="M306.023 339.272L-504.326 -273.819" stroke="white"/>
<path d="M324.831 339.272L-485.517 -273.819" stroke="white"/>
<path d="M343.653 339.272L-466.695 -273.819" stroke="white"/>
<path d="M362.462 339.272L-447.887 -273.819" stroke="white"/>
<path d="M381.283 339.272L-429.066 -273.819" stroke="white"/>
<path d="M400.092 339.272L-410.257 -273.819" stroke="white"/>
<path d="M418.913 339.272L-391.448 -273.819" stroke="white"/>
<path d="M437.722 339.272L-372.627 -273.819" stroke="white"/>
<path d="M456.543 339.272L-353.818 -273.819" stroke="white"/>
<path d="M475.352 339.272L-334.997 -273.819" stroke="white"/>
<path d="M494.16 339.272L-316.188 -273.819" stroke="white"/>
<path d="M512.979 339.272L-297.367 -273.819" stroke="white"/>
<path d="M531.793 339.272L-278.558 -273.819" stroke="white"/>
<path d="M550.608 339.272L-259.75 -273.819" stroke="white"/>
<path d="M569.422 339.272L-240.928 -273.819" stroke="white"/>
<path d="M588.235 339.272L-222.12 -273.819" stroke="white"/>
<path d="M607.049 339.272L-203.298 -273.819" stroke="white"/>
<path d="M625.864 339.272L-184.49 -273.819" stroke="white"/>
<path d="M644.678 339.272L-165.668 -273.819" stroke="white"/>
<path d="M663.493 339.272L-146.86 -273.819" stroke="white"/>
<path d="M682.307 339.272L-128.051 -273.819" stroke="white"/>
<path d="M701.12 339.272L-109.229 -273.819" stroke="white"/>
<path d="M719.934 339.272L-90.4211 -273.819" stroke="white"/>
<path d="M738.749 339.272L-71.5994 -273.819" stroke="white"/>
<path d="M757.563 339.272L-52.791 -273.819" stroke="white"/>
<path d="M776.377 339.272L-33.9694 -273.819" stroke="white"/>
<path d="M795.192 339.272L-15.161 -273.819" stroke="white"/>
<path d="M814.005 339.272L3.64725 -273.819" stroke="white"/>
<path d="M832.819 339.272L22.469 -273.819" stroke="white"/>
<path d="M851.634 339.272L41.2775 -273.819" stroke="white"/>
<path d="M870.448 339.272L60.0992 -273.819" stroke="white"/>
<path d="M889.261 339.272L78.9076 -273.819" stroke="white"/>
<path d="M908.077 339.272L97.7293 -273.819" stroke="white"/>
<path d="M926.89 339.272L116.538 -273.819" stroke="white"/>
<path d="M945.704 339.272L135.359 -273.819" stroke="white"/>
<path d="M964.518 339.272L154.168 -273.819" stroke="white"/>
<path d="M983.333 339.272L172.976 -273.819" stroke="white"/>
<path d="M1002.15 339.272L191.798 -273.819" stroke="white"/>
<path d="M1020.96 339.272L210.606 -273.819" stroke="white"/>
<path d="M1039.78 339.272L229.428 -273.819" stroke="white"/>
<path d="M1058.59 339.272L248.237 -273.819" stroke="white"/>
<path d="M1077.4 339.272L267.058 -273.819" stroke="white"/>
<path d="M1096.22 339.272L285.866 -273.819" stroke="white"/>
<path d="M1115.03 339.272L304.675 -273.819" stroke="white"/>
<path d="M1133.85 339.272L323.496 -273.819" stroke="white"/>
<path d="M1152.66 339.272L342.305 -273.819" stroke="white"/>
<path d="M1171.47 339.272L361.126 -273.819" stroke="white"/>
<path d="M1190.29 339.272L379.935 -273.819" stroke="white"/>
<path d="M1209.1 339.272L398.757 -273.819" stroke="white"/>
<path d="M1227.92 339.272L417.565 -273.819" stroke="white"/>
<path d="M1246.73 339.272L436.373 -273.819" stroke="white"/>
<path d="M1265.54 339.272L455.195 -273.819" stroke="white"/>
<path d="M1284.36 339.272L474.004 -273.819" stroke="white"/>
<path d="M1303.17 339.272L492.825 -273.819" stroke="white"/>
<path d="M1321.99 339.272L511.634 -273.819" stroke="white"/>
<path d="M1340.8 339.272L530.45 -273.819" stroke="white"/>
<path d="M1359.62 339.272L549.264 -273.819" stroke="white"/>
<path d="M1378.43 339.272L568.077 -273.819" stroke="white"/>
<path d="M1397.24 339.272L586.892 -273.819" stroke="white"/>
<path d="M1416.06 339.272L605.706 -273.819" stroke="white"/>
<path d="M1434.87 339.272L624.52 -273.819" stroke="white"/>
<path d="M1453.68 339.272L643.334 -273.819" stroke="white"/>
<path d="M1472.5 339.272L662.149 -273.819" stroke="white"/>
<path d="M1491.31 339.272L680.962 -273.819" stroke="white"/>
<path d="M1510.13 339.272L699.776 -273.819" stroke="white"/>
<path d="M1528.94 339.272L718.591 -273.819" stroke="white"/>
<path d="M1547.76 339.272L737.405 -273.819" stroke="white"/>
<path d="M1566.57 339.272L756.219 -273.819" stroke="white"/>
<path d="M1585.39 339.272L775.034 -273.819" stroke="white"/>
<path d="M1604.2 339.272L793.847 -273.819" stroke="white"/>
<path d="M1623.01 339.272L812.661 -273.819" stroke="white"/>
<path d="M1641.83 339.272L831.476 -273.819" stroke="white"/>
<path d="M1660.64 339.272L850.29 -273.819" stroke="white"/>
<path d="M1679.45 339.272L869.104 -273.819" stroke="white"/>
<path d="M1698.27 339.272L887.917 -273.819" stroke="white"/>
<path d="M1717.08 339.272L906.732 -273.819" stroke="white"/>
<path d="M1735.9 339.272L925.546 -273.819" stroke="white"/>
<path d="M1754.71 339.272L944.36 -273.819" stroke="white"/>
<path d="M1773.53 339.272L963.175 -273.819" stroke="white"/>
<path d="M1792.34 339.272L981.989 -273.819" stroke="white"/>
<path d="M1811.15 339.272L1000.8 -273.819" stroke="white"/>
<path d="M1829.97 339.272L1019.62 -273.819" stroke="white"/>
<path d="M1848.78 339.272L1038.43 -273.819" stroke="white"/>
<path d="M1867.6 339.272L1057.24 -273.819" stroke="white"/>
<path d="M1886.41 339.272L1076.06 -273.819" stroke="white"/>
<path d="M1905.22 339.272L1094.87 -273.819" stroke="white"/>
<path d="M1924.04 339.272L1113.69 -273.819" stroke="white"/>
<path d="M1942.85 339.272L1132.5 -273.819" stroke="white"/>
<path d="M1961.67 339.272L1151.32 -273.819" stroke="white"/>
<path d="M1980.48 339.272L1170.13 -273.819" stroke="white"/>
<path d="M1999.29 339.272L1188.94 -273.819" stroke="white"/>
<path d="M2018.11 339.272L1207.76 -273.819" stroke="white"/>
<path d="M2036.92 339.272L1226.57 -273.819" stroke="white"/>
<path d="M2055.74 339.272L1245.39 -273.819" stroke="white"/>
<path d="M2074.55 339.272L1264.2 -273.819" stroke="white"/>
<path d="M2093.37 339.272L1283.01 -273.819" stroke="white"/>
<path d="M2112.18 339.272L1301.83 -273.819" stroke="white"/>
<path d="M2130.99 339.272L1320.64 -273.819" stroke="white"/>
<path d="M2149.81 339.272L1339.46 -273.819" stroke="white"/>
<path d="M2168.62 339.272L1358.27 -273.819" stroke="white"/>
<path d="M2187.44 339.272L1377.08 -273.819" stroke="white"/>
<path d="M2206.25 339.272L1395.9 -273.819" stroke="white"/>
<path d="M2225.06 339.272L1414.71 -273.819" stroke="white"/>
<path d="M2243.88 339.272L1433.53 -273.819" stroke="white"/>
<path d="M2262.69 339.272L1452.34 -273.819" stroke="white"/>
<path d="M2281.51 339.272L1471.16 -273.819" stroke="white"/>
<path d="M2300.32 339.272L1489.97 -273.819" stroke="white"/>
<path d="M2319.14 339.272L1508.78 -273.819" stroke="white"/>
<path d="M2337.95 339.272L1527.6 -273.819" stroke="white"/>
<path d="M2348.28 331.917L1537.93 -281.174" stroke="white"/>
<path d="M2358.61 324.561L1548.26 -288.53" stroke="white"/>
<path d="M2368.94 317.206L1558.59 -295.885" stroke="white"/>
<path d="M2379.27 309.851L1568.92 -303.24" stroke="white"/>
<path d="M2389.61 302.495L1579.25 -310.596" stroke="white"/>
<path d="M2399.94 295.14L1589.59 -317.951" stroke="white"/>
<path d="M2410.27 287.784L1599.92 -325.307" stroke="white"/>
<path d="M2420.6 280.429L1610.25 -332.662" stroke="white"/>
<path d="M2430.93 273.073L1620.58 -340.018" stroke="white"/>
<path d="M2441.26 265.718L1630.91 -347.373" stroke="white"/>
<path d="M2451.59 258.362L1641.24 -354.729" stroke="white"/>
<path d="M2461.93 251.007L1651.57 -362.084" stroke="white"/>
<path d="M2472.26 243.651L1661.9 -369.44" stroke="white"/>
<path d="M2482.59 236.296L1672.24 -376.795" stroke="white"/>
<path d="M2492.92 228.94L1682.57 -384.151" stroke="white"/>
</g>
</g>
</g>
<defs>
<clipPath id="clip0_1_2221">
<rect width="1939" height="112" fill="white" transform="translate(1834 112.54) rotate(-180)"/>
</clipPath>
</defs>
</svg>
