<svg width="1627" height="112" viewBox="0 0 1627 112" fill="none" xmlns="http://www.w3.org/2000/svg">
<g clip-path="url(#clip0_1_35)">
<mask id="mask0_1_35" style="mask-type:alpha" maskUnits="userSpaceOnUse" x="-4" y="0" width="1632" height="112">
<path d="M-3.11041 0H1627V51.7402L1564.82 111.247H-3.11041V0Z" fill="white"/>
</mask>
<g mask="url(#mask0_1_35)">
<g opacity="0.2">
<path d="M1360.72 -226.732L2041.51 386.36" stroke="white"/>
<path d="M1344.92 -226.732L2025.71 386.36" stroke="white"/>
<path d="M1329.11 -226.732L2009.9 386.36" stroke="white"/>
<path d="M1313.3 -226.732L1994.1 386.36" stroke="white"/>
<path d="M1297.49 -226.732L1978.3 386.36" stroke="white"/>
<path d="M1281.69 -226.732L1962.48 386.36" stroke="white"/>
<path d="M1265.89 -226.732L1946.68 386.36" stroke="white"/>
<path d="M1250.08 -226.732L1930.87 386.36" stroke="white"/>
<path d="M1234.27 -226.732L1915.07 386.36" stroke="white"/>
<path d="M1218.46 -226.732L1899.26 386.36" stroke="white"/>
<path d="M1202.66 -226.732L1883.45 386.36" stroke="white"/>
<path d="M1186.85 -226.732L1867.65 386.36" stroke="white"/>
<path d="M1171.05 -226.732L1851.84 386.36" stroke="white"/>
<path d="M1155.23 -226.732L1836.04 386.36" stroke="white"/>
<path d="M1139.43 -226.732L1820.23 386.36" stroke="white"/>
<path d="M1123.63 -226.732L1804.42 386.36" stroke="white"/>
<path d="M1107.82 -226.732L1788.61 386.36" stroke="white"/>
<path d="M1092.02 -226.732L1772.81 386.36" stroke="white"/>
<path d="M1076.21 -226.732L1757.01 386.36" stroke="white"/>
<path d="M1060.4 -226.732L1741.2 386.36" stroke="white"/>
<path d="M1044.6 -226.732L1725.4 386.36" stroke="white"/>
<path d="M1028.79 -226.732L1709.58 386.36" stroke="white"/>
<path d="M1012.98 -226.732L1693.78 386.36" stroke="white"/>
<path d="M997.178 -226.732L1677.97 386.36" stroke="white"/>
<path d="M981.371 -226.732L1662.17 386.36" stroke="white"/>
<path d="M965.565 -226.732L1646.37 386.36" stroke="white"/>
<path d="M949.759 -226.732L1630.55 386.36" stroke="white"/>
<path d="M933.953 -226.732L1614.75 386.36" stroke="white"/>
<path d="M918.146 -226.732L1598.94 386.36" stroke="white"/>
<path d="M902.34 -226.732L1583.14 386.36" stroke="white"/>
<path d="M886.535 -226.732L1567.33 386.36" stroke="white"/>
<path d="M870.728 -226.732L1551.52 386.36" stroke="white"/>
<path d="M854.922 -226.732L1535.72 386.36" stroke="white"/>
<path d="M839.116 -226.732L1519.91 386.36" stroke="white"/>
<path d="M823.309 -226.732L1504.11 386.36" stroke="white"/>
<path d="M807.503 -226.732L1488.3 386.36" stroke="white"/>
<path d="M791.697 -226.732L1472.49 386.36" stroke="white"/>
<path d="M775.89 -226.732L1456.68 386.36" stroke="white"/>
<path d="M760.084 -226.732L1440.88 386.36" stroke="white"/>
<path d="M744.279 -226.732L1425.07 386.36" stroke="white"/>
<path d="M728.473 -226.732L1409.27 386.36" stroke="white"/>
<path d="M712.666 -226.732L1393.47 386.36" stroke="white"/>
<path d="M696.86 -226.732L1377.65 386.36" stroke="white"/>
<path d="M681.054 -226.732L1361.85 386.36" stroke="white"/>
<path d="M665.247 -226.732L1346.04 386.36" stroke="white"/>
<path d="M649.441 -226.732L1330.24 386.36" stroke="white"/>
<path d="M633.635 -226.732L1314.43 386.36" stroke="white"/>
<path d="M617.828 -226.732L1298.62 386.36" stroke="white"/>
<path d="M602.022 -226.732L1282.82 386.36" stroke="white"/>
<path d="M586.217 -226.732L1267.01 386.36" stroke="white"/>
<path d="M570.41 -226.732L1251.21 386.36" stroke="white"/>
<path d="M554.604 -226.732L1235.4 386.36" stroke="white"/>
<path d="M538.798 -226.732L1219.59 386.36" stroke="white"/>
<path d="M522.991 -226.732L1203.78 386.36" stroke="white"/>
<path d="M507.185 -226.732L1187.98 386.36" stroke="white"/>
<path d="M491.379 -226.732L1172.18 386.36" stroke="white"/>
<path d="M475.574 -226.732L1156.37 386.36" stroke="white"/>
<path d="M459.767 -226.732L1140.57 386.36" stroke="white"/>
<path d="M443.961 -226.732L1124.75 386.36" stroke="white"/>
<path d="M428.155 -226.732L1108.95 386.36" stroke="white"/>
<path d="M412.348 -226.732L1093.14 386.36" stroke="white"/>
<path d="M396.542 -226.732L1077.34 386.36" stroke="white"/>
<path d="M380.736 -226.732L1061.53 386.36" stroke="white"/>
<path d="M364.929 -226.732L1045.72 386.36" stroke="white"/>
<path d="M349.123 -226.732L1029.92 386.36" stroke="white"/>
<path d="M333.318 -226.732L1014.11 386.36" stroke="white"/>
<path d="M317.512 -226.732L998.307 386.36" stroke="white"/>
<path d="M301.705 -226.732L982.5 386.36" stroke="white"/>
<path d="M285.899 -226.732L966.694 386.36" stroke="white"/>
<path d="M270.093 -226.732L950.889 386.36" stroke="white"/>
<path d="M254.286 -226.732L935.081 386.36" stroke="white"/>
<path d="M238.48 -226.732L919.276 386.36" stroke="white"/>
<path d="M222.674 -226.732L903.47 386.36" stroke="white"/>
<path d="M206.867 -226.732L887.663 386.36" stroke="white"/>
<path d="M191.062 -226.732L871.857 386.36" stroke="white"/>
<path d="M175.256 -226.732L856.051 386.36" stroke="white"/>
<path d="M159.449 -226.732L840.244 386.36" stroke="white"/>
<path d="M143.643 -226.732L824.438 386.36" stroke="white"/>
<path d="M127.837 -226.732L808.633 386.36" stroke="white"/>
<path d="M112.031 -226.732L792.827 386.36" stroke="white"/>
<path d="M96.2244 -226.732L777.02 386.36" stroke="white"/>
<path d="M80.4183 -226.732L761.214 386.36" stroke="white"/>
<path d="M64.612 -226.732L745.408 386.36" stroke="white"/>
<path d="M48.8059 -226.732L729.601 386.36" stroke="white"/>
<path d="M32.9996 -226.732L713.795 386.36" stroke="white"/>
<path d="M17.1935 -226.732L697.989 386.36" stroke="white"/>
<path d="M1.38721 -226.732L682.182 386.36" stroke="white"/>
<path d="M-14.4189 -226.732L666.377 386.36" stroke="white"/>
<path d="M-30.2252 -226.732L650.571 386.36" stroke="white"/>
<path d="M-46.0314 -226.732L634.764 386.36" stroke="white"/>
<path d="M-61.8374 -226.732L618.958 386.36" stroke="white"/>
<path d="M-77.6437 -226.732L603.152 386.36" stroke="white"/>
<path d="M-93.4499 -226.732L587.346 386.36" stroke="white"/>
<path d="M-109.256 -226.732L571.539 386.36" stroke="white"/>
<path d="M-125.062 -226.732L555.733 386.36" stroke="white"/>
<path d="M-140.868 -226.732L539.927 386.36" stroke="white"/>
<path d="M-156.675 -226.732L524.121 386.36" stroke="white"/>
<path d="M-172.481 -226.732L508.315 386.36" stroke="white"/>
<path d="M-188.287 -226.732L492.509 386.36" stroke="white"/>
<path d="M-204.094 -226.732L476.702 386.36" stroke="white"/>
<path d="M-219.9 -226.732L460.896 386.36" stroke="white"/>
<path d="M-235.705 -226.732L445.09 386.36" stroke="white"/>
<path d="M-251.512 -226.732L429.283 386.36" stroke="white"/>
<path d="M-267.318 -226.732L413.477 386.36" stroke="white"/>
<path d="M-283.124 -226.732L397.671 386.36" stroke="white"/>
<path d="M-298.93 -226.732L381.866 386.36" stroke="white"/>
<path d="M-314.737 -226.732L366.059 386.36" stroke="white"/>
<path d="M-330.543 -226.732L350.253 386.36" stroke="white"/>
<path d="M-346.349 -226.732L334.447 386.36" stroke="white"/>
<path d="M-362.156 -226.732L318.64 386.36" stroke="white"/>
<path d="M-377.961 -226.732L302.834 386.36" stroke="white"/>
<path d="M-393.767 -226.732L287.028 386.36" stroke="white"/>
<path d="M-409.574 -226.732L271.221 386.36" stroke="white"/>
<path d="M-425.38 -226.732L255.415 386.36" stroke="white"/>
<path d="M-434.059 -219.377L246.736 393.715" stroke="white"/>
<path d="M-442.738 -212.021L238.057 401.071" stroke="white"/>
<path d="M-451.418 -204.666L229.377 408.426" stroke="white"/>
<path d="M-460.098 -197.311L220.698 415.781" stroke="white"/>
<path d="M-468.778 -189.955L212.018 423.137" stroke="white"/>
<path d="M-477.457 -182.6L203.339 430.492" stroke="white"/>
<path d="M-486.136 -175.244L194.659 437.848" stroke="white"/>
<path d="M-494.816 -167.889L185.979 445.203" stroke="white"/>
<path d="M-503.495 -160.533L177.3 452.559" stroke="white"/>
<path d="M-512.176 -153.178L168.62 459.914" stroke="white"/>
<path d="M-520.855 -145.822L159.941 467.27" stroke="white"/>
<path d="M-529.535 -138.467L151.262 474.625" stroke="white"/>
<path d="M-538.214 -131.111L142.581 481.981" stroke="white"/>
<path d="M-546.893 -123.756L133.902 489.336" stroke="white"/>
<path d="M-555.573 -116.4L125.222 496.692" stroke="white"/>
</g>
</g>
</g>
<defs>
<clipPath id="clip0_1_35">
<rect width="1629" height="112" fill="white" transform="translate(-2)"/>
</clipPath>
</defs>
</svg>
