<svg width="596" height="68" viewBox="0 0 596 68" fill="none" xmlns="http://www.w3.org/2000/svg">
<g clip-path="url(#clip0_3039_880)">
<mask id="mask0_3039_880" style="mask-type:alpha" maskUnits="userSpaceOnUse" x="0" y="0" width="597" height="68">
<path d="M596.406 0H-6.10352e-05V31.4137L22.7511 67.5428H596.406V0Z" fill="white"/>
</mask>
<g mask="url(#mask0_3039_880)">
<g opacity="0.2">
<path d="M97.4238 -137.659L-151.657 234.576" stroke="white"/>
<path d="M103.205 -137.659L-145.876 234.576" stroke="white"/>
<path d="M108.99 -137.659L-140.091 234.576" stroke="white"/>
<path d="M114.772 -137.659L-134.309 234.576" stroke="white"/>
<path d="M120.557 -137.659L-128.528 234.576" stroke="white"/>
<path d="M126.338 -137.659L-122.743 234.576" stroke="white"/>
<path d="M132.119 -137.659L-116.961 234.576" stroke="white"/>
<path d="M137.905 -137.659L-111.176 234.576" stroke="white"/>
<path d="M143.686 -137.659L-105.395 234.576" stroke="white"/>
<path d="M149.471 -137.659L-99.6097 234.576" stroke="white"/>
<path d="M155.252 -137.659L-93.8284 234.576" stroke="white"/>
<path d="M161.038 -137.659L-88.0471 234.576" stroke="white"/>
<path d="M166.819 -137.659L-82.2618 234.576" stroke="white"/>
<path d="M172.604 -137.659L-76.4806 234.576" stroke="white"/>
<path d="M178.385 -137.659L-70.6954 234.576" stroke="white"/>
<path d="M184.167 -137.659L-64.9141 234.576" stroke="white"/>
<path d="M189.951 -137.659L-59.1288 234.576" stroke="white"/>
<path d="M195.734 -137.659L-53.3476 234.576" stroke="white"/>
<path d="M201.517 -137.659L-47.5663 234.576" stroke="white"/>
<path d="M207.3 -137.659L-41.781 234.576" stroke="white"/>
<path d="M213.083 -137.659L-35.9996 234.576" stroke="white"/>
<path d="M218.866 -137.659L-30.2145 234.576" stroke="white"/>
<path d="M224.649 -137.659L-24.4332 234.576" stroke="white"/>
<path d="M230.432 -137.659L-18.6479 234.576" stroke="white"/>
<path d="M236.215 -137.659L-12.8666 234.576" stroke="white"/>
<path d="M241.998 -137.659L-7.0854 234.576" stroke="white"/>
<path d="M247.781 -137.659L-1.30001 234.576" stroke="white"/>
<path d="M253.564 -137.659L4.48107 234.576" stroke="white"/>
<path d="M259.347 -137.659L10.2664 234.576" stroke="white"/>
<path d="M265.13 -137.659L16.0477 234.576" stroke="white"/>
<path d="M270.913 -137.659L21.833 234.576" stroke="white"/>
<path d="M276.696 -137.659L27.6142 234.576" stroke="white"/>
<path d="M282.479 -137.659L33.3955 234.576" stroke="white"/>
<path d="M288.262 -137.659L39.1807 234.576" stroke="white"/>
<path d="M294.045 -137.659L44.9621 234.576" stroke="white"/>
<path d="M299.828 -137.659L50.7473 234.576" stroke="white"/>
<path d="M305.611 -137.659L56.5286 234.576" stroke="white"/>
<path d="M311.394 -137.659L62.3138 234.576" stroke="white"/>
<path d="M317.177 -137.659L68.0952 234.576" stroke="white"/>
<path d="M322.96 -137.659L73.8803 234.576" stroke="white"/>
<path d="M328.743 -137.659L79.6616 234.576" stroke="white"/>
<path d="M334.526 -137.659L85.4428 234.576" stroke="white"/>
<path d="M340.309 -137.659L91.2282 234.576" stroke="white"/>
<path d="M346.092 -137.659L97.0093 234.576" stroke="white"/>
<path d="M351.875 -137.659L102.795 234.576" stroke="white"/>
<path d="M357.658 -137.659L108.576 234.576" stroke="white"/>
<path d="M363.441 -137.659L114.361 234.576" stroke="white"/>
<path d="M369.224 -137.659L120.142 234.576" stroke="white"/>
<path d="M375.007 -137.659L125.924 234.576" stroke="white"/>
<path d="M380.79 -137.659L131.709 234.576" stroke="white"/>
<path d="M386.573 -137.659L137.49 234.576" stroke="white"/>
<path d="M392.356 -137.659L143.275 234.576" stroke="white"/>
<path d="M398.139 -137.659L149.057 234.576" stroke="white"/>
<path d="M403.922 -137.659L154.842 234.576" stroke="white"/>
<path d="M409.705 -137.659L160.623 234.576" stroke="white"/>
<path d="M415.488 -137.659L166.405 234.576" stroke="white"/>
<path d="M421.271 -137.659L172.19 234.576" stroke="white"/>
<path d="M427.054 -137.659L177.971 234.576" stroke="white"/>
<path d="M432.837 -137.659L183.756 234.576" stroke="white"/>
<path d="M438.62 -137.659L189.538 234.576" stroke="white"/>
<path d="M444.403 -137.659L195.321 234.576" stroke="white"/>
<path d="M450.186 -137.659L201.104 234.576" stroke="white"/>
<path d="M455.969 -137.659L206.887 234.576" stroke="white"/>
<path d="M461.752 -137.659L212.67 234.576" stroke="white"/>
<path d="M467.535 -137.659L218.453 234.576" stroke="white"/>
<path d="M473.318 -137.659L224.236 234.576" stroke="white"/>
<path d="M479.101 -137.659L230.019 234.576" stroke="white"/>
<path d="M484.884 -137.659L235.802 234.576" stroke="white"/>
<path d="M490.667 -137.659L241.585 234.576" stroke="white"/>
<path d="M496.45 -137.659L247.368 234.576" stroke="white"/>
<path d="M502.233 -137.659L253.151 234.576" stroke="white"/>
<path d="M508.016 -137.659L258.934 234.576" stroke="white"/>
<path d="M513.799 -137.659L264.717 234.576" stroke="white"/>
<path d="M519.582 -137.659L270.5 234.576" stroke="white"/>
<path d="M525.365 -137.659L276.283 234.576" stroke="white"/>
<path d="M531.148 -137.659L282.066 234.576" stroke="white"/>
<path d="M536.931 -137.659L287.849 234.576" stroke="white"/>
<path d="M542.714 -137.659L293.632 234.576" stroke="white"/>
<path d="M548.497 -137.659L299.415 234.576" stroke="white"/>
<path d="M554.28 -137.659L305.198 234.576" stroke="white"/>
<path d="M560.063 -137.659L310.981 234.576" stroke="white"/>
<path d="M565.846 -137.659L316.764 234.576" stroke="white"/>
<path d="M571.629 -137.659L322.547 234.576" stroke="white"/>
<path d="M577.412 -137.659L328.33 234.576" stroke="white"/>
<path d="M583.195 -137.659L334.113 234.576" stroke="white"/>
<path d="M588.978 -137.659L339.896 234.576" stroke="white"/>
<path d="M594.761 -137.659L345.679 234.576" stroke="white"/>
<path d="M600.544 -137.659L351.462 234.576" stroke="white"/>
<path d="M606.327 -137.659L357.245 234.576" stroke="white"/>
<path d="M612.11 -137.659L363.028 234.576" stroke="white"/>
<path d="M617.893 -137.659L368.811 234.576" stroke="white"/>
<path d="M623.676 -137.659L374.594 234.576" stroke="white"/>
<path d="M629.459 -137.659L380.377 234.576" stroke="white"/>
<path d="M635.242 -137.659L386.16 234.576" stroke="white"/>
<path d="M641.025 -137.659L391.943 234.576" stroke="white"/>
<path d="M646.807 -137.659L397.726 234.576" stroke="white"/>
<path d="M652.591 -137.659L403.509 234.576" stroke="white"/>
<path d="M658.374 -137.659L409.292 234.576" stroke="white"/>
<path d="M664.156 -137.659L415.075 234.576" stroke="white"/>
<path d="M669.94 -137.659L420.858 234.576" stroke="white"/>
<path d="M675.723 -137.659L426.641 234.576" stroke="white"/>
<path d="M681.505 -137.659L432.424 234.576" stroke="white"/>
<path d="M687.289 -137.659L438.207 234.576" stroke="white"/>
<path d="M693.072 -137.659L443.99 234.576" stroke="white"/>
<path d="M698.854 -137.659L449.773 234.576" stroke="white"/>
<path d="M704.637 -137.659L455.556 234.576" stroke="white"/>
<path d="M710.421 -137.659L461.339 234.576" stroke="white"/>
<path d="M716.203 -137.659L467.122 234.576" stroke="white"/>
<path d="M721.986 -137.659L472.905 234.576" stroke="white"/>
<path d="M727.77 -137.659L478.688 234.576" stroke="white"/>
<path d="M733.552 -137.659L484.471 234.576" stroke="white"/>
<path d="M739.335 -137.659L490.253 234.576" stroke="white"/>
<path d="M745.119 -137.659L496.037 234.576" stroke="white"/>
<path d="M750.901 -137.659L501.82 234.576" stroke="white"/>
<path d="M754.077 -133.193L504.995 239.041" stroke="white"/>
<path d="M757.252 -128.727L508.171 243.507" stroke="white"/>
<path d="M760.428 -124.262L511.347 247.973" stroke="white"/>
<path d="M763.604 -119.796L514.522 252.439" stroke="white"/>
<path d="M766.779 -115.33L517.698 256.905" stroke="white"/>
<path d="M769.955 -110.864L520.873 261.37" stroke="white"/>
<path d="M773.13 -106.398L524.048 265.836" stroke="white"/>
<path d="M776.306 -101.933L527.224 270.302" stroke="white"/>
<path d="M779.481 -97.4663L530.4 274.768" stroke="white"/>
<path d="M782.657 -93.001L533.576 279.233" stroke="white"/>
<path d="M785.833 -88.5347L536.751 283.7" stroke="white"/>
<path d="M789.009 -84.0693L539.926 288.165" stroke="white"/>
<path d="M792.184 -79.603L543.102 292.631" stroke="white"/>
<path d="M795.359 -75.1377L546.278 297.097" stroke="white"/>
<path d="M798.535 -70.6714L549.453 301.563" stroke="white"/>
</g>
</g>
</g>
<defs>
<clipPath id="clip0_3039_880">
<rect width="596" height="68" fill="white" transform="matrix(-1 0 0 1 596 0)"/>
</clipPath>
</defs>
</svg>
