<svg width="68" height="68" viewBox="0 0 68 68" fill="none" xmlns="http://www.w3.org/2000/svg">
<path d="M38.5962 3.47487C36.0578 0.936467 31.9422 0.936463 29.4038 3.47487L3.47487 29.4038C0.936467 31.9422 0.936463 36.0578 3.47487 38.5962L29.4038 64.5251C31.9422 67.0635 36.0578 67.0635 38.5962 64.5251L64.5251 38.5962C67.0635 36.0578 67.0635 31.9422 64.5251 29.4038L38.5962 3.47487Z" fill="black" stroke="url(#paint0_linear_3349_3652)" stroke-width="3"/>
<path d="M26.4142 22.5858C25.6332 21.8047 24.3668 21.8047 23.5858 22.5858C22.8047 23.3668 22.8047 24.6332 23.5858 25.4142L26.4142 22.5858ZM42.5858 44.4142C43.3668 45.1953 44.6332 45.1953 45.4142 44.4142C46.1953 43.6332 46.1953 42.3668 45.4142 41.5858L42.5858 44.4142ZM45.4142 25.4142C46.1953 24.6332 46.1953 23.3668 45.4142 22.5858C44.6332 21.8047 43.3668 21.8047 42.5858 22.5858L45.4142 25.4142ZM23.5858 41.5858C22.8047 42.3668 22.8047 43.6332 23.5858 44.4142C24.3668 45.1953 25.6332 45.1953 26.4142 44.4142L23.5858 41.5858ZM23.5858 25.4142L42.5858 44.4142L45.4142 41.5858L26.4142 22.5858L23.5858 25.4142ZM42.5858 22.5858L23.5858 41.5858L26.4142 44.4142L45.4142 25.4142L42.5858 22.5858Z" fill="#FF0000"/>
<path d="M26.4142 22.5858C25.6332 21.8047 24.3668 21.8047 23.5858 22.5858C22.8047 23.3668 22.8047 24.6332 23.5858 25.4142L26.4142 22.5858ZM42.5858 44.4142C43.3668 45.1953 44.6332 45.1953 45.4142 44.4142C46.1953 43.6332 46.1953 42.3668 45.4142 41.5858L42.5858 44.4142ZM45.4142 25.4142C46.1953 24.6332 46.1953 23.3668 45.4142 22.5858C44.6332 21.8047 43.3668 21.8047 42.5858 22.5858L45.4142 25.4142ZM23.5858 41.5858C22.8047 42.3668 22.8047 43.6332 23.5858 44.4142C24.3668 45.1953 25.6332 45.1953 26.4142 44.4142L23.5858 41.5858ZM23.5858 25.4142L42.5858 44.4142L45.4142 41.5858L26.4142 22.5858L23.5858 25.4142ZM42.5858 22.5858L23.5858 41.5858L26.4142 44.4142L45.4142 25.4142L42.5858 22.5858Z" fill="#FF0000" fill-opacity="0.2"/>
<defs>
<linearGradient id="paint0_linear_3349_3652" x1="34" y1="1" x2="34" y2="67" gradientUnits="userSpaceOnUse">
<stop stop-color="#CB3A06"/>
<stop offset="1" stop-color="#F9BA3F"/>
</linearGradient>
</defs>
</svg>
