<svg width="59" height="44" viewBox="0 0 59 44" fill="none" xmlns="http://www.w3.org/2000/svg">
<path d="M50.7601 5.12116C45.6697 1.03036 37.6204 0.337355 37.2802 0.307955C36.7426 0.261755 36.2323 0.566256 36.0118 1.05766C36.0034 1.07446 35.554 2.37856 35.1193 3.63646C41.035 4.67176 45.0544 6.96916 45.2686 7.09516C46.2724 7.67896 46.6084 8.96626 46.0225 9.96796C45.634 10.6358 44.9305 11.0096 44.2081 11.0096C43.849 11.0096 43.4878 10.9193 43.156 10.7261C43.0972 10.6904 37.2004 7.33456 29.5123 7.33456C21.8221 7.33456 15.9232 10.6925 15.8644 10.7261C14.8627 11.3078 13.5775 10.9655 12.9958 9.96166C12.4141 8.96206 12.7522 7.67896 13.7518 7.09516C13.966 6.96916 18.0001 4.66336 23.9326 3.63016C23.4748 2.35756 23.0128 1.07446 23.0044 1.05766C22.7839 0.564156 22.2736 0.253355 21.736 0.307955C21.3958 0.335255 13.3465 1.02826 8.18892 5.17576C5.49252 7.66636 0.108124 22.2278 0.108124 34.8173C0.108124 35.0399 0.164824 35.2562 0.276124 35.4494C3.99522 41.9804 14.134 43.6898 16.444 43.7633C16.4587 43.7654 16.4713 43.7654 16.4839 43.7654C16.8913 43.7654 17.2756 43.5701 17.5171 43.2404L20.0161 39.8552C14.5351 38.5343 11.6371 36.4574 11.4628 36.3293C10.5304 35.6426 10.3288 34.328 11.0155 33.3935C11.7001 32.4632 13.0105 32.2574 13.9429 32.9399C14.0206 32.9903 19.3693 36.7346 29.5081 36.7346C39.6868 36.7346 45.0208 32.9756 45.0733 32.9378C46.0057 32.2616 47.3203 32.4653 48.0028 33.4019C48.6832 34.3343 48.4858 35.6405 47.5576 36.3251C47.3833 36.4532 44.5 38.5259 39.0316 39.8468L41.4991 43.2383C41.7406 43.5701 42.1249 43.7633 42.5323 43.7633C42.547 43.7633 42.5596 43.7633 42.5722 43.7612C44.8843 43.6877 55.0231 41.9783 58.7401 35.4473C58.8514 35.2541 58.9081 35.0378 58.9081 34.8152C58.9081 22.2278 53.5237 7.66636 50.7601 5.12116ZM21.1081 30.4346C18.7876 30.4346 16.9081 28.0847 16.9081 25.1846C16.9081 22.2845 18.7876 19.9346 21.1081 19.9346C23.4286 19.9346 25.3081 22.2845 25.3081 25.1846C25.3081 28.0847 23.4286 30.4346 21.1081 30.4346ZM37.9081 30.4346C35.5876 30.4346 33.7081 28.0847 33.7081 25.1846C33.7081 22.2845 35.5876 19.9346 37.9081 19.9346C40.2286 19.9346 42.1081 22.2845 42.1081 25.1846C42.1081 28.0847 40.2286 30.4346 37.9081 30.4346Z" fill="white"/>
</svg>
