<svg width="45" height="46" viewBox="0 0 45 46" fill="none" xmlns="http://www.w3.org/2000/svg">
<path d="M12.6944 0.992188C5.93974 0.992188 0.444389 6.48754 0.444389 13.2422V32.8422C0.444389 39.5968 5.93974 45.0922 12.6944 45.0922H32.2944C39.049 45.0922 44.5444 39.5968 44.5444 32.8422V13.2422C44.5444 6.48754 39.049 0.992188 32.2944 0.992188H12.6944ZM12.6944 5.89219H32.2944C36.3467 5.89219 39.6444 9.18989 39.6444 13.2422V32.8422C39.6444 36.8945 36.3467 40.1922 32.2944 40.1922H12.6944C8.64209 40.1922 5.34439 36.8945 5.34439 32.8422V13.2422C5.34439 9.18989 8.64209 5.89219 12.6944 5.89219ZM34.7444 8.34219C34.0946 8.34219 33.4714 8.60031 33.012 9.05978C32.5525 9.51924 32.2944 10.1424 32.2944 10.7922C32.2944 11.442 32.5525 12.0651 33.012 12.5246C33.4714 12.9841 34.0946 13.2422 34.7444 13.2422C35.3942 13.2422 36.0173 12.9841 36.4768 12.5246C36.9363 12.0651 37.1944 11.442 37.1944 10.7922C37.1944 10.1424 36.9363 9.51924 36.4768 9.05978C36.0173 8.60031 35.3942 8.34219 34.7444 8.34219ZM22.4944 10.7922C15.7397 10.7922 10.2444 16.2875 10.2444 23.0422C10.2444 29.7968 15.7397 35.2922 22.4944 35.2922C29.249 35.2922 34.7444 29.7968 34.7444 23.0422C34.7444 16.2875 29.249 10.7922 22.4944 10.7922ZM22.4944 15.6922C26.5467 15.6922 29.8444 18.9899 29.8444 23.0422C29.8444 27.0945 26.5467 30.3922 22.4944 30.3922C18.4421 30.3922 15.1444 27.0945 15.1444 23.0422C15.1444 18.9899 18.4421 15.6922 22.4944 15.6922Z" fill="white"/>
</svg>
