<svg width="49" height="48" viewBox="0 0 49 48" fill="none" xmlns="http://www.w3.org/2000/svg">
<path d="M10.9073 47.1395H0.407349V15.6395H10.9073V47.1395ZM5.65945 11.4395C2.75515 11.4395 0.407349 9.08535 0.407349 6.18735C0.407349 3.28935 2.75935 0.939453 5.65945 0.939453C8.55325 0.939453 10.9073 3.29355 10.9073 6.18735C10.9073 9.08535 8.55325 11.4395 5.65945 11.4395ZM48.7073 47.1395H38.6126V31.8095C38.6126 28.1534 38.5433 23.4515 33.3647 23.4515C28.1084 23.4515 27.2999 27.4331 27.2999 31.5449V47.1395H17.2073V15.6164H26.8967V19.9235H27.0332C28.3814 17.4455 31.6763 14.8331 36.5903 14.8331C46.8173 14.8331 48.7073 21.362 48.7073 29.8502C48.7073 29.8502 48.7073 47.1395 48.7073 47.1395Z" fill="white"/>
</svg>
