<svg width="62" height="35" viewBox="0 0 62 35" fill="none" xmlns="http://www.w3.org/2000/svg">
<path d="M17.472 0C12.8381 0 8.39407 1.84079 5.11743 5.11743C1.84079 8.39407 0 12.8381 0 17.472C0 22.1059 1.84079 26.5499 5.11743 29.8266C8.39407 33.1032 12.8381 34.944 17.472 34.944C22.1059 34.944 26.5499 33.1032 29.8266 29.8266C33.1032 26.5499 34.944 22.1059 34.944 17.472C34.944 12.8381 33.1032 8.39407 29.8266 5.11743C26.5499 1.84079 22.1059 0 17.472 0V0ZM45.024 1.344C40.199 1.344 36.288 8.56531 36.288 17.472C36.288 19.1426 36.4251 20.7527 36.6804 22.2674C37.0205 24.2874 37.5702 26.1368 38.2825 27.7308C38.6387 28.5277 39.0351 29.2602 39.4666 29.9174C40.3294 31.2319 41.332 32.2466 42.426 32.8756C43.2472 33.346 44.1195 33.6 45.024 33.6C45.9285 33.6 46.8008 33.346 47.6219 32.8756C48.716 32.2466 49.7186 31.2319 50.5814 29.9174C51.0129 29.2602 51.4093 28.5277 51.7655 27.7308C52.4778 26.1381 53.0275 24.2874 53.3676 22.2674C53.6229 20.7527 53.76 19.1426 53.76 17.472C53.76 8.56531 49.849 1.344 45.024 1.344ZM58.464 2.688C58.1159 2.688 57.7799 2.92051 57.4654 3.35328C57.2544 3.6409 57.0528 4.01722 56.8633 4.47283C56.7679 4.69997 56.6751 4.94726 56.5864 5.21338C56.4077 5.74426 56.241 6.3504 56.0892 7.01837C55.7854 8.35565 55.5395 9.94963 55.3688 11.7183C55.2841 12.6027 55.2182 13.5314 55.1725 14.4937C55.1268 15.4547 55.104 16.4519 55.104 17.472C55.104 18.4921 55.1268 19.4893 55.1725 20.4516C55.2169 21.414 55.2827 22.3427 55.3688 23.227C55.5395 24.9957 55.7854 26.5884 56.0892 27.927C56.241 28.5963 56.4077 29.2011 56.5864 29.732C56.6751 29.9981 56.7679 30.2454 56.8633 30.4725C57.0541 30.9281 57.2557 31.3044 57.4654 31.5921C57.7799 32.0235 58.1159 32.256 58.464 32.256C60.3201 32.256 61.824 25.6368 61.824 17.472C61.824 9.3072 60.3201 2.688 58.464 2.688Z" fill="white"/>
</svg>
