<svg width="53" height="48" viewBox="0 0 53 48" fill="none" xmlns="http://www.w3.org/2000/svg">
<path d="M51.1573 1.34881C50.2753 0.600873 48.89 0.493857 47.4576 1.06892H47.4553C45.9488 1.67338 4.81234 19.3181 3.13772 20.039C2.83313 20.1448 0.173021 21.1374 0.447029 23.3482C0.691637 25.3416 2.8296 26.1671 3.09068 26.2624L13.5488 29.8433C14.2427 32.1529 16.8005 40.6742 17.3661 42.4947C17.7189 43.6295 18.294 45.1207 19.3018 45.4276C20.1862 45.7687 21.0658 45.457 21.635 45.0102L28.0289 39.0796L38.3507 47.1293L38.5965 47.2763C39.2974 47.5868 39.9689 47.742 40.6098 47.742C41.1049 47.742 41.58 47.6491 42.0339 47.4633C43.5804 46.8283 44.1989 45.3547 44.2636 45.1877L51.9735 5.11318C52.4439 2.97286 51.79 1.88389 51.1573 1.34881ZM22.7722 31.2757L19.2442 40.6837L15.7162 28.9237L42.7642 8.93166L22.7722 31.2757Z" fill="white"/>
</svg>
