<svg width="55" height="46" viewBox="0 0 55 46" fill="none" xmlns="http://www.w3.org/2000/svg">
<path d="M54.8152 6.10464C52.8055 6.99714 50.6467 7.59774 48.3808 7.86864C50.695 6.48264 52.4695 4.28814 53.3053 1.67154C51.1423 2.95464 48.7441 3.88704 46.1905 4.39104C44.1472 2.21334 41.2366 0.852539 38.0152 0.852539C31.8286 0.852539 26.8138 5.86944 26.8138 12.0539C26.8138 12.9317 26.9146 13.7885 27.1036 14.6054C17.7943 14.1392 9.54127 9.67884 4.01407 2.90004C3.05227 4.55484 2.49997 6.47844 2.49997 8.53434C2.49997 12.4193 4.47607 15.8486 7.48117 17.8562C5.64577 17.7974 3.91747 17.2934 2.40757 16.4555C2.40757 16.5038 2.40757 16.5479 2.40757 16.5962C2.40757 22.0247 6.26737 26.5523 11.3935 27.5792C10.4548 27.8354 9.46357 27.9719 8.44087 27.9719C7.72057 27.9719 7.01707 27.9005 6.33457 27.7724C7.76047 32.2223 11.8975 35.4626 16.7989 35.5529C12.9664 38.558 8.13637 40.3493 2.88637 40.3493C1.98337 40.3493 1.09087 40.2968 0.213074 40.1918C5.17117 43.3691 11.0575 45.2234 17.3848 45.2234C37.99 45.2234 49.2544 28.1546 49.2544 13.3517C49.2544 12.8666 49.2439 12.3836 49.2229 11.9027C51.4132 10.3214 53.3137 8.34954 54.8152 6.10464Z" fill="white"/>
</svg>
